# xmcd
#
# Track frame offsets:
#	183
#	26435
#	46935
#	64663
#	97450
#	122873
#	143053
#	169145
#	191050
#	202310
#	220545
#	244288
#
# Disc length: 3456 seconds
#
# Revision: 1
# Processed by: cddbd v1.5.2PL0 Copyright (c) Steve Scherf et al.
# Submitted via: EZCDAudioConverter 2.1.0.1
#
DISCID=b90d7e0c
DTITLE=Zucchero
DYEAR=1990
DGENRE=Blues - Pop - Soul - R&B - Rock
TTITLE0=Zucchero feat. Randy Crawford - Diamante
TTITLE1=Zucchero feat. Eric Clapton - Wonderful World
TTITLE2=Zucchero - Il Mare
TTITLE3=Zucchero - Mama
TTITLE4=Zucchero - Dunes of Mercy
TTITLE5=Zucchero feat. Paul Young - Senza Una Donna (Without A Woman)
TTITLE6=Zucchero - You're Losing Me
TTITLE7=Zucchero - Solo Una Sana
TTITLE8=Zucchero - You've Chosen Me
TTITLE9=Zucchero - Diavolo In Me
TTITLE10=Zucchero - Overdose (d'amore)
TTITLE11=Zucchero - Nice (Nietzsche) che dice
EXTD=
EXTT0=
EXTT1=
EXTT2=
EXTT3=
EXTT4=
EXTT5=
EXTT6=
EXTT7=
EXTT8=
EXTT9=
EXTT10=
EXTT11=
PLAYORDER=
